<svg width="200" height="20" viewBox="0 0 200 20" fill="none" xmlns="http://www.w3.org/2000/svg">
<path d="M137.664 5.76416V11.0596H131.207V5.76416H127.927V19.6802H131.207V14.1384H137.664V19.6802H140.945V5.76416H137.664Z" fill="white" fill-opacity="0.2"/>
<path d="M155.223 5.76416H150.709H147.428H142.914V8.62125H147.428V19.6802H150.709V8.62125H155.223V5.76416Z" fill="white" fill-opacity="0.2"/>
<path d="M168.687 8.62125V5.76416H160.551H157.296V8.62125V11.2813V14.163V16.7985V19.6802H160.551H168.687V16.7985H160.551V14.163H168.687V11.2813H160.551V8.62125H168.687Z" fill="white" fill-opacity="0.2"/>
<path d="M184.777 5.76416H180.84L176.457 11.2813H175.066V5.76416H171.785V19.6802H175.066V14.163H176.457L180.84 19.6802H184.777L179.239 12.7098L184.777 5.76416Z" fill="white" fill-opacity="0.2"/>
<path d="M121.286 5.76416L114.646 14.9019V5.76416H111.365V19.6802H114.646L121.286 10.5424V19.6802H124.567V5.76416H121.286Z" fill="white" fill-opacity="0.2"/>
<path d="M192.152 5.27148C187.821 5.27148 184.304 8.57192 184.304 12.6359C184.304 16.6999 187.821 20.0003 192.152 20.0003C196.483 20.0003 200 16.6999 200 12.6359C200.026 8.59655 196.509 5.27148 192.152 5.27148ZM192.152 16.9708C189.606 16.9708 187.559 15.0496 187.559 12.6605C187.559 10.2714 189.606 8.35025 192.152 8.35025C194.698 8.35025 196.745 10.2714 196.745 12.6605C196.772 15.0496 194.698 16.9708 192.152 16.9708Z" fill="white" fill-opacity="0.2"/>
<path d="M77.4802 19.6787L83.202 13.2257L77.6902 5.81199H80.6823C82.1521 5.81199 81.9422 6.37848 84.4881 9.80207L85.3542 10.9843L88.8188 5.9844C88.9238 5.83662 89.1075 5.78735 89.265 5.78735H91.0498L85.8529 11.6493L91.8634 19.6787H89.055C87.1915 19.7034 87.5327 18.9891 85.0655 15.7133L83.7007 13.8907L79.7374 19.4571C79.6324 19.6048 79.475 19.6541 79.265 19.6541H77.4802V19.6787Z" fill="white" fill-opacity="0.2"/>
<path d="M71.4696 19.9503C69.4486 19.9503 67.3489 19.4084 66.0366 17.8814C64.803 16.4528 64.3568 14.6794 64.3043 12.8814C64.278 10.6401 64.8817 8.8421 66.1416 7.48745C67.4014 6.13279 69.1337 5.46777 71.3384 5.46777C72.3883 5.46777 73.3332 5.61555 74.1468 5.91111C74.9604 6.20667 75.5904 6.60076 76.0891 7.11799C76.5877 7.63523 76.9552 8.22635 77.1914 8.89136C77.4276 9.55637 77.5589 10.2953 77.5851 11.0834C77.5851 11.5021 77.5589 11.8962 77.4801 12.2411C77.4801 12.2903 77.4276 12.3149 77.4014 12.3149H68.1626C68.215 14.5563 68.5825 16.1572 69.2649 17.1671C69.9473 18.1769 71.0759 18.6695 72.677 18.6695C74.3305 18.6695 75.6166 18.2262 76.8765 17.3149C77.0864 17.4873 77.3227 17.9552 76.8765 18.3247C75.7216 19.3099 73.4644 19.9503 71.4696 19.9503ZM68.1363 11.6499L74.1206 11.2312C74.1468 9.35933 74.0681 6.28056 71.4171 6.28056C68.635 6.28056 68.215 9.65489 68.1363 11.6499Z" fill="white" fill-opacity="0.2"/>
<path d="M61.9947 18.0784V9.95048C61.9947 7.16728 60.8661 5.49243 57.9527 5.49243C55.9055 5.49243 53.9632 6.40374 52.5721 7.7584C52.5721 6.67467 52.3884 5.78799 51.2598 5.78799H48.8976L49.0288 7.36432V18.0538L48.8976 19.6547H52.7296L52.5984 18.0538V8.4973C53.7007 7.70914 54.7243 7.31506 56.1942 7.31506C58.0577 7.31506 58.4251 8.94065 58.4251 10.7386V17.7829C58.4251 18.9651 58.7138 19.6547 59.7637 19.6547H62.1259L61.9947 18.0784Z" fill="white" fill-opacity="0.2"/>
<path d="M45.1969 1.77337C45.1969 2.75858 44.3307 3.54674 43.2809 3.54674C42.231 3.54674 41.3648 2.75858 41.3648 1.77337C41.3648 0.788167 42.231 0 43.2809 0C44.3307 0 45.1969 0.788167 45.1969 1.77337Z" fill="white" fill-opacity="0.2"/>
<path d="M41.4957 5.7883L41.627 7.36463V18.0541L41.4957 19.6551H45.3277L45.1965 18.0541V7.63556C45.1965 6.57646 44.9865 5.76367 43.8579 5.76367H41.4957V5.7883Z" fill="white" fill-opacity="0.2"/>
<path d="M37.8739 18.0784V9.95048C37.8739 7.14265 36.7453 5.49243 33.8319 5.49243C31.391 5.49243 29.7374 6.65005 28.4251 7.95544C27.9526 6.40375 26.7978 5.49243 24.5931 5.49243C22.5196 5.49243 20.8398 6.40374 19.475 7.78303V7.7584C19.475 6.67467 19.2912 5.78799 18.1626 5.78799H15.8004L15.9316 7.36432V18.0538L15.8004 19.6547H19.6324L19.5012 18.0538V8.4973C20.5773 7.65988 21.8634 7.31506 22.887 7.31506C24.908 7.31506 25.118 9.26084 25.118 10.7386V18.0538L24.9868 19.6547H28.8188L28.6875 18.0538V8.4973C29.6062 7.7584 30.8923 7.31506 32.0996 7.31506C34.1993 7.31506 34.3306 9.45788 34.3306 10.7386V17.7829C34.3306 19.1129 34.7243 19.6547 35.6692 19.6547H38.0314L37.8739 18.0784Z" fill="white" fill-opacity="0.2"/>
<path d="M6.11553 19.9504C4.357 19.9504 1.75858 19.4824 0.183779 18.645C0.472492 18.0292 1.02367 17.5613 1.81107 17.9554C3.22839 18.645 4.64572 18.9652 6.22052 18.9652C8.47773 18.9652 10.1313 17.7829 10.0263 15.6401C9.79007 11.1574 -0.0261942 10.4924 5.25395e-05 5.09844C0.0262992 1.13299 3.83207 0 7.48036 0C9.23889 0 10.9712 0.320198 12.6772 0.960581C12.3885 1.60096 11.8898 2.14282 11.0237 1.74874C9.81631 1.20688 8.60897 0.960581 7.32288 0.960581C5.09191 0.960581 3.83207 2.09356 3.83207 3.76841C3.80582 8.05405 13.7796 8.69444 13.9633 14.2608C14.0683 18.3248 10.4462 19.9504 6.11553 19.9504Z" fill="white" fill-opacity="0.2"/>
<path d="M104.672 12.3147H96.1416V13.029H104.672V12.3147Z" fill="white" fill-opacity="0.2"/>
</svg>
