<svg width="78" height="95" viewBox="0 0 78 95" fill="none" xmlns="http://www.w3.org/2000/svg">
<g clip-path="url(#clip0_11_287)">
<path d="M57.1169 91.3794C45.1273 98.8098 33.1548 83.9375 21.1766 91.3794C21.1709 92.8594 21.1709 91.2595 21.1766 92.7289C33.1548 85.2926 45.1387 100.176 57.1169 92.7289C57.1226 91.248 57.1169 92.8709 57.1169 91.3794Z" fill="white"/>
<path d="M5.37864 40.5333V35.3348L5.03398 35.3747C4.79668 35.4031 4.55372 35.4145 4.31077 35.4145C4.10737 35.4145 3.89832 35.4031 3.68926 35.386C3.23725 35.3462 2.8135 35.2494 2.43494 35.1013C2.06203 34.959 1.72868 34.7483 1.44617 34.4864C1.16932 34.2302 0.988509 33.9227 0.881161 33.5356C0.745559 33.1142 0.677757 32.6701 0.677757 32.2032V30.4153L0.706008 19.4889H2.24284L2.21458 30.626L2.24284 32.3228C2.24284 32.7156 2.33324 33.0458 2.50274 33.3077C2.67225 33.564 2.89825 33.7633 3.1751 33.8999C3.43501 34.0309 3.74011 34.1163 4.08476 34.1448C4.22602 34.1562 4.36727 34.1619 4.51417 34.1619C4.70628 34.1619 4.90403 34.1505 5.10179 34.1277L5.37864 34.0993V19.4946H6.91546V40.5333H5.37864Z" fill="white"/>
<path d="M34.3465 40.6415C34.0923 40.6415 33.8154 40.6188 33.5217 40.5789C33.2278 40.539 32.9397 40.4821 32.6572 40.4137C32.3916 40.3512 32.1825 40.2771 32.03 40.1974C31.3067 39.833 30.7361 39.3774 30.3406 38.8479C29.9337 38.3014 29.6174 37.7035 29.4026 37.0715C29.1823 36.4281 29.0467 35.7505 28.9959 35.0445C28.945 34.3214 28.9167 33.6153 28.9167 32.9378V27.9671C28.9167 27.1073 28.9281 26.2361 28.945 25.3649C28.9619 24.528 29.0863 23.7365 29.3236 23.0077C29.5552 22.296 29.9337 21.6526 30.4479 21.089C30.9621 20.531 31.7418 20.0811 32.7701 19.7452L33.1205 19.6598C33.29 19.6143 33.482 19.5744 33.6855 19.5288C33.8889 19.489 34.0923 19.4548 34.3013 19.4263C34.403 19.4149 34.4991 19.4092 34.5951 19.4036L34.6799 20.5138C33.7702 20.6164 33.0357 20.8099 32.4933 21.0832C31.8661 21.4021 31.3971 21.8633 31.0864 22.4611C30.787 23.0362 30.6061 23.765 30.5383 24.6305C30.4762 25.4561 30.4479 26.4696 30.4479 27.6425V32.431C30.4479 32.5905 30.4536 32.8467 30.4593 33.194C30.4705 33.547 30.4875 33.9456 30.5271 34.3897C30.5609 34.8396 30.6231 35.3178 30.7135 35.8075C30.8039 36.3085 30.9338 36.7868 31.092 37.2366C31.2559 37.6921 31.4649 38.1021 31.7023 38.4551C31.9679 38.8423 32.3068 39.1155 32.7193 39.2579C33.0244 39.3661 33.3295 39.4629 33.6347 39.5426C33.7533 39.5768 33.8776 39.5881 34.0131 39.5881C34.1827 39.5881 34.3635 39.5654 34.5613 39.5142L34.5782 40.6244C34.533 40.6358 34.4539 40.6415 34.3465 40.6415Z" fill="white"/>
<path d="M44.1381 40.5333V20.6449H41.9854V19.4948H48.0141V20.6449H45.6467V40.5333H44.1381Z" fill="white"/>
<path d="M19.5774 19.4948V21.4363C18.2778 21.647 17.1082 23.1388 16.3116 24.9437V19.4948H14.7747V40.5333H16.3116V28.5251C16.6393 25.8205 18.2044 22.8655 19.5774 22.4555V40.5277H21.0859V19.4948H19.5774Z" fill="white"/>
<path d="M75.0444 39.6224V26.9024H77.6152V25.9856H75.0444V25.9913V20.5651H77.5926V19.4948H73.5076V40.5333H77.6152V39.6224H75.0444Z" fill="white"/>
<path d="M9.77455 75.4025V55.5709H6.48052L6.50313 75.4025H4.97195V54.3638H11.2831V75.4025H9.77455Z" fill="white"/>
<path d="M64.1399 19.4948H65.6768V40.5334H64.1399V19.4948ZM57.1734 39.2523L57.5349 39.1897C57.8909 39.1327 58.2073 39.0132 58.4729 38.8423C58.7271 38.6829 58.9531 38.495 59.1509 38.29C59.343 38.085 59.5011 37.8801 59.6255 37.6637C59.7385 37.4701 59.8402 37.305 59.9249 37.1683C60.1735 36.7072 60.3656 36.1776 60.5012 35.5798C60.6368 34.999 60.7273 34.367 60.7725 33.7065C60.8177 33.0517 60.8233 32.3684 60.7838 31.6738C60.7499 30.9792 60.6651 30.2845 60.5408 29.6241C60.3092 28.3771 59.9306 27.3237 59.4221 26.5038C58.8966 25.6555 58.2808 25.0918 57.5858 24.8412L57.1734 24.6932V39.2523ZM55.6648 19.5175H57.1734V23.3836L57.3655 23.4633C57.7723 23.6341 58.1564 23.822 58.5181 24.0156C58.8684 24.2092 59.2017 24.4313 59.5068 24.6874C59.8119 24.938 60.1057 25.2341 60.3826 25.5814C60.6594 25.9287 60.925 26.333 61.1793 26.7942C61.394 27.1756 61.5917 27.6881 61.7669 28.3145C61.9477 28.9465 62.0833 29.6525 62.1794 30.4098C62.2754 31.1671 62.3149 31.9755 62.3093 32.8126C62.3036 33.6439 62.2132 34.4695 62.055 35.2666C61.8912 36.058 61.6482 36.821 61.3262 37.5271C61.0097 38.2217 60.5916 38.8252 60.0775 39.3263C59.7498 39.6451 59.3204 39.8843 58.8119 40.0437C58.2695 40.2145 57.7327 40.3455 57.2242 40.4309C56.9417 40.4651 56.6366 40.4936 56.3202 40.522C56.1055 40.5391 55.8908 40.5505 55.6704 40.5562V19.5175H55.6648Z" fill="white"/>
<path d="M20.8091 70.3803C20.8091 70.3803 21.9391 70.033 22.6001 69.2473C23.0013 68.7691 23.3347 68.1484 23.6116 67.4253C23.8771 66.7135 24.0861 65.905 24.2331 65.0225C24.3743 64.1457 24.4534 63.2574 24.459 62.3862C24.4647 61.5037 24.3969 60.6554 24.2556 59.8525C24.1087 59.0383 23.8771 58.3322 23.5664 57.7628C23.4703 57.6091 23.3742 57.444 23.2612 57.2505C23.1369 57.0341 22.9787 56.8291 22.7866 56.6241C22.5945 56.4192 22.3685 56.2369 22.1086 56.0718C21.8374 55.901 21.521 55.7814 21.1707 55.7245L20.8091 55.6618V70.3803ZM19.3005 75.4023V54.3694C19.8373 54.3807 20.3627 54.4206 20.8655 54.4946C21.3685 54.58 25.9394 55.3715 25.9394 62.113C25.9394 62.9499 25.9055 63.7585 25.8094 64.5157C25.7134 65.273 25.5778 65.9791 25.397 66.6111C25.2218 67.2374 25.0241 67.7441 24.8094 68.1313C24.5551 68.5925 24.2896 69.0025 24.0127 69.3441C23.7415 69.6857 23.4477 69.9875 23.1426 70.238C22.8318 70.4886 22.4985 70.7163 22.1538 70.9099C21.7978 71.1092 21.408 71.2971 21.0011 71.4622L20.8091 71.5419V75.4081H19.3005V75.4023Z" fill="white"/>
<path d="M34.6915 75.4877C34.5728 75.4877 34.4542 75.482 34.3298 75.4706C34.0418 75.4478 33.7649 75.4023 33.5162 75.334C33.3863 75.2998 33.2677 75.2656 33.166 75.2258L33.5502 74.2123C33.6349 74.2465 33.7027 74.2749 33.7536 74.292C33.8665 74.3376 34.0078 74.3603 34.1886 74.3603C34.2508 74.3603 34.3186 74.3603 34.3921 74.3489C34.7028 74.3262 34.9684 74.1896 35.1774 73.939C35.3525 73.734 35.4994 73.4949 35.6068 73.2387C35.7085 72.9938 35.7932 72.7376 35.8441 72.4813C35.895 72.2479 35.9402 72.06 35.974 71.9234L35.991 71.8607L33.0529 54.3921H34.5502L36.5842 67.8579L36.7368 67.8466L39.1946 54.3921H40.5675L37.3527 72.5952C37.234 73.25 37.0589 73.8137 36.8272 74.2692C36.6068 74.7019 36.2735 75.0322 35.8046 75.2885C35.635 75.3739 35.4147 75.4365 35.1661 75.465C35.0079 75.4763 34.8497 75.4877 34.6915 75.4877Z" fill="white"/>
<path d="M50.1783 74.0187L51.653 57.6888L51.879 57.6774L53.0655 74.2236C53.5571 74.3375 54.0543 74.4116 54.5458 74.4001L52.444 54.2839H51.184L48.7601 73.8137C48.0312 73.8024 47.2967 73.9617 46.5679 74.4116C46.5679 74.8272 46.5679 75.2372 46.5679 75.6471C49.9127 73.5688 53.2633 77.7254 56.6081 75.6471C56.6081 75.2315 56.6081 74.8272 56.6081 74.4116C54.4611 75.7439 52.3197 74.5254 50.1783 74.0187Z" fill="white"/>
<path d="M71.79 54.3638H73.3269V75.4025H71.79V54.3638ZM64.8234 74.1214L65.185 74.0587C65.541 74.0018 65.8574 73.8822 66.123 73.7114C66.3772 73.552 66.6032 73.364 66.801 73.1591C66.993 72.9541 67.1513 72.7491 67.2756 72.5327C67.3886 72.3392 67.4903 72.1741 67.575 72.0374C67.8237 71.5762 68.0157 71.0467 68.1514 70.4489C68.287 69.868 68.3774 69.2361 68.4226 68.5756C68.4678 67.9208 68.4735 67.2375 68.4338 66.5429C68.4 65.8482 68.3152 65.1536 68.1909 64.4931C67.9593 63.2462 67.5807 62.1927 67.0722 61.3729C66.5468 60.5245 65.9308 59.9608 65.2359 59.7103L64.8234 59.5622V74.1214ZM63.3148 54.3923H64.8234V58.2583L65.0156 58.3381C65.4223 58.5089 65.8066 58.6967 66.1682 58.8904C66.5185 59.0839 66.8519 59.306 67.1569 59.5622C67.462 59.8128 67.7559 60.1089 68.0328 60.4562C68.3096 60.8035 68.5751 61.2078 68.8294 61.6689C69.0441 62.0504 69.2418 62.5629 69.417 63.1892C69.5978 63.8212 69.7334 64.5273 69.8295 65.2845C69.9255 66.0418 69.965 66.8503 69.9594 67.6873C69.9538 68.5186 69.8634 69.3442 69.7051 70.1414C69.5413 70.9328 69.2983 71.6958 68.9763 72.4018C68.6599 73.0964 68.2418 73.7 67.7276 74.2011C67.3999 74.5199 66.9704 74.759 66.4619 74.9185C65.9196 75.0893 65.3828 75.2203 64.8743 75.3057C64.5918 75.3399 64.2866 75.3683 63.9703 75.3968C63.7555 75.4138 63.5408 75.4253 63.3205 75.431V54.3923H63.3148Z" fill="white"/>
<path d="M11.4751 3.2676C11.7971 3.2676 12.1192 3.26191 12.3113 3.16512C12.56 3.02847 12.6842 2.59574 12.7972 2.14592C12.9498 1.59362 13.2775 1.20644 14.1533 1.37156V1.86123C13.7295 1.83276 13.577 1.91248 13.447 2.3509C13.317 2.81779 13.1815 3.23345 12.8933 3.49536L14.2945 5.55083V5.65332H13.4922L12.2718 3.77436C12.091 3.84268 11.6785 3.84268 11.4751 3.84268V5.65332H10.7632V1.36587H11.4751V3.2676Z" fill="white"/>
<path d="M16.1929 5.66451H15.5092V5.56202L17.3737 1.3429H17.6789L19.549 5.56202V5.66451H18.8597L17.5319 2.52722H17.5262L16.1929 5.66451Z" fill="white"/>
<path d="M26.7419 3.6206V5.03267C27.0809 5.03267 27.4595 5.03836 27.8041 5.03267C28.3409 5.03267 28.6064 4.70812 28.6064 4.32663C28.6064 3.93376 28.3409 3.6206 27.8041 3.6206H26.7419ZM26.7419 3.01705H27.7984C28.8098 3.01705 29.2957 3.58644 29.2957 4.31525C29.2957 5.04975 28.7985 5.65898 27.7984 5.65898H26.0413V1.36584H28.9454V1.99786H26.7419V3.01705Z" fill="white"/>
<path d="M33.7424 5.66468V3.74586H31.7931V5.66468H31.0868V1.36584H31.7931V3.09107H33.7424V1.36584H34.4543V5.66468H33.7424Z" fill="white"/>
<path d="M41.1552 5.66468H40.4489V1.36584H41.1552V5.66468ZM38.0929 3.40992H37.2397V5.02698C37.5449 5.02698 37.8612 5.03267 38.172 5.03267C38.7144 5.03267 39.0647 4.77075 39.0986 4.26969C39.1268 3.78572 38.7935 3.40423 38.2906 3.40423H38.0929V3.40992ZM37.2397 1.58221V2.77222H38.285C39.2907 2.77222 39.85 3.5295 39.771 4.3551C39.7088 5.07821 39.1551 5.66468 38.285 5.66468H36.5448V1.36584H37.2397V1.58221Z" fill="white"/>
<path d="M52.1107 5.044H54.0882L53.0769 2.51024H53.0712L52.1107 5.044ZM51.5344 6.31371H50.9581V5.05538H51.4045L52.9356 1.32593H53.2351L54.8171 5.05538H55.2804V6.31371H54.7097V5.66462H51.5401V6.31371H51.5344Z" fill="white"/>
<path d="M58.7156 5.06099C59.5122 5.06099 60.179 4.51437 60.179 3.51227C60.179 2.53292 59.5236 1.95785 58.7212 1.95785C57.9189 1.95785 57.2579 2.51585 57.2579 3.51227C57.2635 4.51437 57.9133 5.06099 58.7156 5.06099ZM58.7043 5.73855C57.5348 5.73855 56.5403 4.91864 56.5403 3.51796C56.5403 2.11728 57.5574 1.29736 58.7156 1.29736C59.8795 1.29736 60.8852 2.11728 60.8852 3.51796C60.8852 4.82185 59.9925 5.73855 58.7043 5.73855Z" fill="white"/>
<path d="M66.4562 1.35437H66.7161V5.6646H66.0041V2.97711L64.7724 4.56569H64.6764L63.439 2.97711V5.6646H62.7271V1.35437H62.9926L64.7272 3.57496L66.4562 1.35437Z" fill="white"/>
<path d="M43.4943 5.67029H43.2514V1.36576H43.9576V2.93157L43.9067 4.24684L46.4945 1.35437H46.7487V5.6646H46.0481V4.10449L46.099 2.74367L43.4943 5.67029Z" fill="white"/>
<path d="M46.1553 0.164367C45.4773 0.733749 44.7993 -0.405016 44.1212 0.164367C44.1212 0.278242 44.1212 0.602791 44.1212 0.710974C44.7993 0.141591 45.4773 1.28036 46.1553 0.710974C46.1553 0.597097 46.1553 0.278242 46.1553 0.164367Z" fill="white"/>
<path d="M22.2556 4.23553L20.7075 1.45695V1.36584H21.4872L22.6116 3.50672H22.6342L23.6512 1.36584H24.4082V1.43986L22.7302 4.822C22.3968 5.56219 21.9618 5.98354 21.0295 5.61344L21.1256 5.05544C21.5663 5.24904 21.8318 5.11808 22.0296 4.69104L22.2556 4.23553Z" fill="white"/>
</g>
<defs>
<clipPath id="clip0_11_287">
<rect width="78" height="95" fill="white"/>
</clipPath>
</defs>
</svg>
