<svg width="20" height="20" viewBox="0 0 20 20" fill="none" xmlns="http://www.w3.org/2000/svg">
<g clip-path="url(#clip0_11_329)">
<path d="M18.7576 9.59443C18.7592 9.59443 18.7604 9.59443 18.762 9.59443C18.8736 9.59443 18.98 9.54763 19.0556 9.46563C19.1324 9.38243 19.1704 9.27083 19.1604 9.15803C18.7588 4.74083 15.2616 1.24243 10.844 0.840034C10.732 0.831234 10.6192 0.867634 10.536 0.944834C10.4528 1.02163 10.4064 1.13003 10.4076 1.24323C10.4772 7.11363 11.2516 9.51243 18.7576 9.59443ZM18.7576 10.4056C11.2516 10.4876 10.4776 12.8864 10.408 18.7568C10.4068 18.87 10.4532 18.9784 10.5364 19.0552C10.6108 19.1236 10.708 19.1616 10.808 19.1616C10.82 19.1616 10.8324 19.1612 10.8444 19.16C15.262 18.7576 18.7592 15.2596 19.1604 10.842C19.1704 10.7292 19.1328 10.6176 19.0556 10.5344C18.9784 10.4512 18.8708 10.41 18.7576 10.4056ZM9.1292 0.842034C4.7256 1.25603 1.2396 4.75363 0.840001 9.15883C0.830001 9.27163 0.867601 9.38323 0.944801 9.46643C1.0204 9.54843 1.1272 9.59483 1.2384 9.59483C1.24 9.59483 1.2416 9.59483 1.2432 9.59483C8.7244 9.50883 9.4968 7.11123 9.5672 1.24483C9.5684 1.13163 9.5216 1.02283 9.4384 0.946034C9.3544 0.869234 9.242 0.831634 9.1292 0.842034ZM1.2428 10.4052C1.1184 10.3912 1.0208 10.4504 0.944401 10.5336C0.867601 10.6168 0.829601 10.7284 0.839601 10.8412C1.2392 15.2464 4.7256 18.744 9.1292 19.158C9.1416 19.1592 9.1544 19.1596 9.1668 19.1596C9.2668 19.1596 9.3636 19.122 9.438 19.0536C9.5212 18.9768 9.568 18.868 9.5668 18.7548C9.4964 12.8888 8.7244 10.4912 1.2428 10.4052Z" fill="white" fill-opacity="0.2"/>
</g>
<defs>
<clipPath id="clip0_11_329">
<rect width="20" height="20" fill="white"/>
</clipPath>
</defs>
</svg>
