<svg width="180" height="42" viewBox="0 0 180 42" fill="none" xmlns="http://www.w3.org/2000/svg">
<path fill-rule="evenodd" clip-rule="evenodd" d="M139.463 31.1696C137.569 30.5323 135.507 30.2228 133.158 30.2228C126.756 30.2228 123.509 32.5654 120.369 34.8309C117.154 37.1507 114.118 39.3414 107.883 39.3414C105.778 39.3414 104.038 39.091 102.532 38.671C110.06 38.3951 111.343 33.5817 111.513 31.5616C111.589 30.6703 110.425 30.5406 110.307 31.8312C110.223 32.7464 110.004 33.254 109.818 33.5283C109.718 33.6761 109.491 33.6341 109.451 33.4604C109.348 33.0269 109.125 32.3824 108.712 32.512C107.988 32.7391 108.385 34.3564 108.067 35.0694C108.026 35.1643 107.913 35.2042 107.822 35.1539C107.605 35.0331 107.173 34.8977 106.869 35.4821C106.729 35.7528 106.613 36.2526 106.435 36.7623C106.267 37.2394 105.883 37.6117 105.397 37.747C104.173 38.0877 102.646 38.2754 100.804 38.0763C100.801 38.0757 100.798 38.0763 100.794 38.0763C98.7198 37.228 97.0833 36.0473 95.3981 34.8314C92.2584 32.5654 89.0128 30.2228 82.6109 30.2228C76.209 30.2228 72.9633 32.5654 69.8236 34.8309C66.6095 37.1507 63.5733 39.3414 57.339 39.3414C55.0279 39.3414 53.1571 39.0402 51.5531 38.5434C59.1809 38.3111 60.475 33.4599 60.6472 31.4294C60.7222 30.5386 59.559 30.4089 59.44 31.6995C59.3562 32.6147 59.1379 33.1223 58.9522 33.3966C58.8524 33.5444 58.6243 33.5029 58.584 33.3287C58.4821 32.8952 58.2586 32.2507 57.8459 32.3803C57.1217 32.6074 57.5184 34.2247 57.2009 34.9382C57.159 35.0326 57.0462 35.0725 56.9557 35.0222C56.7384 34.9014 56.306 34.766 56.0029 35.3504C55.8628 35.6211 55.7469 36.1209 55.5684 36.6306C55.4009 37.1077 55.0171 37.48 54.5303 37.6153C53.306 37.9554 51.7802 38.1431 49.9378 37.9446C49.9378 37.944 49.9372 37.9446 49.9372 37.944C48.0095 37.1082 46.4541 35.9856 44.8543 34.8314L44.2367 34.387C44.1209 34.3035 43.959 34.3305 43.8757 34.4471C43.7929 34.5638 43.8198 34.7256 43.9362 34.8091L44.5517 35.2519C47.6909 37.5173 50.9371 39.86 57.339 39.86C63.7403 39.86 66.9865 37.5173 70.1257 35.2519C71.7493 34.08 73.3279 32.9414 75.296 32.1009C76.8581 32.0018 78.1776 32.1797 79.2581 32.4804C79.7443 32.6157 80.1286 32.9875 80.2962 33.4651C80.4752 33.9748 80.5905 34.4746 80.7307 34.7453C81.0343 35.3297 81.4667 35.1943 81.6834 35.0735C81.774 35.0232 81.8867 35.0631 81.9291 35.1575C82.2462 35.871 81.8495 37.4883 82.5736 37.7154C82.9864 37.845 83.2098 37.2 83.3117 36.767C83.3526 36.5928 83.5802 36.5513 83.68 36.6991C83.8657 36.9734 84.084 37.481 84.1678 38.3962C84.2867 39.6868 85.45 39.5571 85.375 38.6658C85.2064 36.6757 83.9588 31.9738 76.7231 31.5714C78.3498 31.0555 80.2512 30.7413 82.6109 30.7413C88.8462 30.7413 91.8819 32.932 95.096 35.2519C98.2357 37.5173 101.481 39.86 107.883 39.86C114.285 39.86 117.531 37.5173 120.672 35.2519C123.886 32.932 126.922 30.7413 133.158 30.7413C135.45 30.7413 137.459 31.042 139.298 31.6611C139.434 31.7068 139.581 31.6337 139.625 31.4978C139.671 31.3625 139.598 31.2152 139.463 31.1696Z" fill="#837875"/>
<path fill-rule="evenodd" clip-rule="evenodd" d="M51.9961 35.6649C51.9961 36.2057 52.4332 36.6439 52.9726 36.6439C53.5121 36.6439 53.9497 36.2057 53.9497 35.6649C53.9497 35.1241 53.5121 34.6854 52.9726 34.6854C52.4332 34.6854 51.9961 35.1241 51.9961 35.6649Z" fill="#837875"/>
<path fill-rule="evenodd" clip-rule="evenodd" d="M88.7341 38.2523C88.7341 38.2523 89.7717 39.2499 90.4715 40.2543C90.7472 40.6505 91.189 40.3694 91.1378 40.0656C91.1238 39.98 91.1998 39.909 91.2846 39.9277C91.4936 39.9743 91.7724 39.9904 91.8345 39.7576C92.1262 38.663 88.7341 38.2523 88.7341 38.2523Z" fill="#837875"/>
<path fill-rule="evenodd" clip-rule="evenodd" d="M133.511 31.6287C132.906 31.2859 131.996 32.6045 129.711 32.4396C130.201 32.7995 132.561 34.3343 135.027 32.5013C135.45 32.1866 135.029 31.5141 134.412 31.9662C133.975 32.2867 133.806 32.4624 133.613 32.4873C133.508 32.5003 133.438 32.3826 133.499 32.2965C133.651 32.0818 133.787 31.7852 133.511 31.6287Z" fill="#837875"/>
<path fill-rule="evenodd" clip-rule="evenodd" d="M133.554 33.788C134.572 34.4102 134.649 35.2497 134.959 35.3793C135.264 35.5074 135.333 35.257 135.349 35.077C135.359 34.9547 135.482 35.0008 135.528 35.0397C136.044 35.4737 135.938 35.8585 136.349 36.0156C136.672 36.139 137.329 35.6676 136.598 34.8401C135.456 33.5479 133.554 33.788 133.554 33.788Z" fill="#837875"/>
<path fill-rule="evenodd" clip-rule="evenodd" d="M137.693 33.9031C137.405 33.8933 137.165 34.1194 137.155 34.4077C137.145 34.696 137.371 34.9376 137.658 34.9474C137.946 34.9573 138.187 34.7312 138.197 34.4429C138.206 34.1546 137.981 33.913 137.693 33.9031Z" fill="#837875"/>
<path fill-rule="evenodd" clip-rule="evenodd" d="M137.593 33.2034C137.784 32.9171 137.126 32.4022 136.383 32.5998C136.002 32.7014 135.253 33.1105 134.877 33.3122C135.634 33.4242 137.414 33.4709 137.593 33.2034Z" fill="#837875"/>
<path fill-rule="evenodd" clip-rule="evenodd" d="M132.234 33.8989C132.234 33.8989 132.684 34.6679 133.011 35.1963C133.316 35.6883 133.901 35.47 133.857 35.1143C133.758 34.32 132.234 33.8989 132.234 33.8989Z" fill="#837875"/>
<path fill-rule="evenodd" clip-rule="evenodd" d="M127.44 32.6339C126.926 32.6433 126.518 33.0679 126.527 33.5823C126.536 34.0967 126.96 34.5063 127.473 34.497C127.986 34.4876 128.395 34.063 128.386 33.5486C128.376 33.0342 127.953 32.6246 127.44 32.6339Z" fill="#837875"/>
<path fill-rule="evenodd" clip-rule="evenodd" d="M125.066 35.1238C125.43 35.117 125.72 34.8158 125.714 34.4502C125.707 34.0847 125.406 33.7938 125.042 33.8005C124.677 33.8068 124.387 34.1085 124.393 34.4741C124.4 34.8396 124.701 35.1305 125.066 35.1238Z" fill="#837875"/>
<path fill-rule="evenodd" clip-rule="evenodd" d="M93.9917 36.4047C93.5463 36.413 93.191 36.7816 93.1992 37.2286C93.207 37.6756 93.5748 38.0313 94.0211 38.0235C94.4665 38.0152 94.8213 37.6465 94.8135 37.1996C94.8053 36.7526 94.4375 36.3969 93.9917 36.4047Z" fill="#837875"/>
<path fill-rule="evenodd" clip-rule="evenodd" d="M61.4559 36.5158C61.76 36.4308 62.1831 36.2778 62.329 36.0554C62.5488 35.7194 62.3988 35.0889 61.009 35.4451C59.6331 35.7977 57.6956 37.4694 57.6956 37.4694C57.6956 37.4694 60.799 37.697 61.2945 37.2003C61.4404 37.0541 61.4156 36.9146 61.3462 36.8062C61.2759 36.6963 61.3302 36.5511 61.4559 36.5158Z" fill="#837875"/>
<path fill-rule="evenodd" clip-rule="evenodd" d="M66.0639 33.3818C66.8666 33.2076 66.8392 32.3199 64.974 32.323C62.0594 32.3287 60.2335 35.0183 60.2335 35.0183C62.2213 34.2934 63.2232 35.2495 63.8211 35.0131C64.343 34.8062 64.0875 34.3955 63.8749 34.1767C63.804 34.1041 63.8604 33.9766 63.9608 33.9906C64.7232 34.0995 65.8254 35.0198 66.3209 34.4189C66.5651 34.1228 66.3085 33.8532 66.0116 33.6639C65.8932 33.5887 65.9273 33.4114 66.0639 33.3818Z" fill="#837875"/>
<path fill-rule="evenodd" clip-rule="evenodd" d="M64.1662 30.6168C64.1445 30.0983 62.8881 30.06 62.1619 30.9627C61.6234 31.6321 60.9122 33.3214 60.9122 33.3214C60.9122 33.3214 64.1915 31.2323 64.1662 30.6168Z" fill="#837875"/>
<path fill-rule="evenodd" clip-rule="evenodd" d="M67.1832 31.0964C67.3725 30.9834 67.6136 30.7848 67.4744 30.5794C66.7736 29.5466 64.1124 31.7663 64.1124 31.7663C64.1124 31.7663 65.5591 31.5553 66.8051 31.9167C67.3193 32.0655 67.4729 31.5496 67.1708 31.3033C67.101 31.2473 67.1067 31.142 67.1832 31.0964Z" fill="#837875"/>
<mask id="mask0_3_151" style="mask-type:luminance" maskUnits="userSpaceOnUse" x="65" y="38" width="8" height="4">
<path fill-rule="evenodd" clip-rule="evenodd" d="M65.4295 38.8353H72.0059V41.5491H65.4295V38.8353Z" fill="white"/>
</mask>
<g mask="url(#mask0_3_151)">
<path fill-rule="evenodd" clip-rule="evenodd" d="M65.4295 39.2433C66.69 39.5187 67.0428 40.1082 67.4804 40.3514C67.9004 40.5853 68.1093 40.3276 68.1931 40.1663C68.2288 40.0979 68.3111 40.0771 68.3762 40.1186C68.8567 40.4245 69.2654 41.5715 69.7981 41.417C70.1023 41.3288 69.9786 40.8445 69.8664 40.5396C69.8214 40.4178 69.9398 40.2996 70.0598 40.3483C70.2828 40.4396 70.6221 40.6599 71.0436 41.1873C71.6354 41.9256 72.2752 41.3895 71.8878 40.8637C69.494 37.6152 65.4295 39.2433 65.4295 39.2433Z" fill="#837875"/>
</g>
<path fill-rule="evenodd" clip-rule="evenodd" d="M71.1092 37.0771C70.9277 37.0092 70.6132 37.1015 70.3975 37.1834C70.3075 37.2171 70.2129 37.1544 70.2061 37.0585C70.2004 36.9657 70.1544 36.8728 70.006 36.85C69.5001 36.7717 67.728 38.3278 67.728 38.3278C67.728 38.3278 69.631 38.3962 70.5941 38.0084C71.567 37.6169 71.3834 37.1798 71.1092 37.0771Z" fill="#837875"/>
<path fill-rule="evenodd" clip-rule="evenodd" d="M72.6034 37.2533C72.1917 37.3083 71.9672 38.2307 70.4144 38.701C70.4144 38.701 72.6096 39.6011 74.3879 38.4262C75.5258 37.6743 75.186 37.1221 74.6263 37.3404C74.5312 37.3777 74.4391 37.2834 74.481 37.1895C74.586 36.9541 74.6336 36.6865 74.3656 36.6046C73.822 36.4387 73.5205 37.4446 73.0999 37.819C73.0446 37.8688 72.9587 37.8138 72.9722 37.7402C73.0141 37.5208 73.0094 37.1994 72.6034 37.2533Z" fill="#837875"/>
<path fill-rule="evenodd" clip-rule="evenodd" d="M71.7245 39.616C72.1057 39.8887 72.8666 40.4404 73.2679 40.6048C74.0505 40.9252 74.8409 40.456 74.6717 40.1163C74.5145 39.7995 72.5247 39.6403 71.7245 39.616Z" fill="#837875"/>
<path fill-rule="evenodd" clip-rule="evenodd" d="M75.6073 38.664C75.1346 38.7599 74.0194 39.2676 74.0194 39.2676C74.0194 39.2676 75.8996 39.6782 76.2027 39.2313C76.3418 39.0259 76.2208 38.5396 75.6073 38.664Z" fill="#837875"/>
<path fill-rule="evenodd" clip-rule="evenodd" d="M77.4129 33.0985C76.8998 33.1079 76.4912 33.532 76.5005 34.0469C76.5098 34.5613 76.9329 34.9709 77.4465 34.9616C77.9596 34.9522 78.3682 34.5276 78.3589 34.0132C78.3496 33.4988 77.926 33.0892 77.4129 33.0985Z" fill="#837875"/>
<path fill-rule="evenodd" clip-rule="evenodd" d="M75.0388 35.5881C75.4035 35.5814 75.6937 35.2801 75.6869 34.9146C75.6802 34.549 75.3797 34.2581 75.015 34.2649C74.6504 34.2711 74.3602 34.5729 74.3669 34.9384C74.3731 35.304 74.6742 35.5949 75.0388 35.5881Z" fill="#837875"/>
<path fill-rule="evenodd" clip-rule="evenodd" d="M103.839 34.8171C103.299 34.8171 102.862 35.2558 102.862 35.7966C102.862 36.3374 103.299 36.7756 103.839 36.7756C104.378 36.7756 104.816 36.3374 104.816 35.7966C104.816 35.2558 104.378 34.8171 103.839 34.8171Z" fill="#837875"/>
<path fill-rule="evenodd" clip-rule="evenodd" d="M112.322 36.6478C112.627 36.5627 113.049 36.4098 113.195 36.1868C113.415 35.8513 113.265 35.2203 111.875 35.577C110.5 35.9296 108.562 37.6008 108.562 37.6008C108.562 37.6008 111.665 37.8289 112.161 37.3317C112.307 37.186 112.282 37.046 112.213 36.9376C112.142 36.8277 112.197 36.6825 112.322 36.6478Z" fill="#837875"/>
<path fill-rule="evenodd" clip-rule="evenodd" d="M116.93 33.5135C117.733 33.3393 117.705 32.4516 115.841 32.4552C112.926 32.4604 111.1 35.15 111.1 35.15C113.087 34.4251 114.09 35.3812 114.688 35.1448C115.21 34.9384 114.954 34.5272 114.741 34.3084C114.671 34.2358 114.727 34.1082 114.827 34.1228C115.589 34.2311 116.692 35.1515 117.187 34.5505C117.432 34.2545 117.175 33.9848 116.878 33.7956C116.76 33.7209 116.794 33.5436 116.93 33.5135Z" fill="#837875"/>
<path fill-rule="evenodd" clip-rule="evenodd" d="M115.032 30.7486C115.011 30.23 113.754 30.1917 113.029 31.0944C112.49 31.7638 111.778 33.4532 111.778 33.4532C111.778 33.4532 115.058 31.364 115.032 30.7486Z" fill="#837875"/>
<path fill-rule="evenodd" clip-rule="evenodd" d="M118.049 31.228C118.239 31.115 118.48 30.9164 118.341 30.711C117.64 29.6782 114.979 31.8979 114.979 31.8979C114.979 31.8979 116.425 31.6869 117.672 32.0483C118.185 32.1976 118.34 31.6812 118.037 31.4349C117.968 31.3789 117.973 31.2736 118.049 31.228Z" fill="#837875"/>
<path fill-rule="evenodd" clip-rule="evenodd" d="M86.0224 32.8953C85.5268 32.3985 82.4234 32.6262 82.4234 32.6262C82.4234 32.6262 84.361 34.2979 85.7368 34.6504C87.1267 35.0072 87.2767 34.3762 87.0568 34.0402C86.911 33.8177 86.4879 33.6647 86.1837 33.5797C86.0581 33.5444 86.0037 33.3998 86.0741 33.2893C86.1434 33.1815 86.1682 33.0415 86.0224 32.8953Z" fill="#837875"/>
<path fill-rule="evenodd" clip-rule="evenodd" d="M89.7019 37.7721C91.5671 37.7758 91.5945 36.8881 90.7917 36.7138C90.6552 36.6838 90.621 36.5064 90.7395 36.4318C91.0364 36.2425 91.2929 35.9729 91.0488 35.6768C90.5533 35.0758 89.451 35.9962 88.6886 36.1046C88.5883 36.1191 88.5319 35.9915 88.6028 35.9189C88.8154 35.7001 89.0709 35.2889 88.549 35.0826C87.951 34.8461 86.9492 35.8023 84.9609 35.0774C84.9609 35.0774 86.7873 37.7669 89.7019 37.7721Z" fill="#837875"/>
<path fill-rule="evenodd" clip-rule="evenodd" d="M85.64 36.774C85.64 36.774 86.3512 38.4634 86.8897 39.1333C87.6159 40.0355 88.8723 39.9972 88.894 39.4786C88.9193 38.8632 85.64 36.774 85.64 36.774Z" fill="#837875"/>
<path fill-rule="evenodd" clip-rule="evenodd" d="M117.018 38.7896C118.279 39.0649 118.631 39.6545 119.069 39.8982C119.489 40.1315 119.698 39.8738 119.782 39.7126C119.817 39.6441 119.9 39.6234 119.965 39.6649C120.446 39.9713 120.854 41.1178 121.387 40.9632C121.691 40.8751 121.568 40.3913 121.455 40.0859C121.41 39.9646 121.529 39.8458 121.648 39.8946C121.872 39.9858 122.211 40.2062 122.633 40.7335C123.224 41.4719 123.864 40.9358 123.477 40.41C121.083 37.1615 117.018 38.7896 117.018 38.7896Z" fill="#837875"/>
<path fill-rule="evenodd" clip-rule="evenodd" d="M122.698 36.6234C122.516 36.5555 122.202 36.6478 121.986 36.7297C121.896 36.7634 121.802 36.7012 121.795 36.6053C121.789 36.5119 121.743 36.4191 121.595 36.3963C121.089 36.318 119.317 37.8741 119.317 37.8741C119.317 37.8741 121.22 37.9425 122.183 37.5547C123.156 37.1632 122.973 36.7261 122.698 36.6234Z" fill="#837875"/>
<path fill-rule="evenodd" clip-rule="evenodd" d="M124.192 36.7996C123.78 36.8545 123.556 37.777 122.004 38.2473C122.004 38.2473 124.199 39.1474 125.977 37.9724C127.115 37.2206 126.775 36.6689 126.215 36.8867C126.12 36.924 126.028 36.8296 126.07 36.7358C126.175 36.5004 126.223 36.2328 125.954 36.1509C125.411 35.985 125.11 36.9909 124.689 37.3658C124.634 37.415 124.548 37.3601 124.561 37.2864C124.603 37.0671 124.598 36.7456 124.192 36.7996Z" fill="#837875"/>
<path fill-rule="evenodd" clip-rule="evenodd" d="M123.313 39.1624C123.695 39.4351 124.455 39.9868 124.857 40.1512C125.639 40.4716 126.43 40.0024 126.261 39.6627C126.103 39.3459 124.113 39.1867 123.313 39.1624Z" fill="#837875"/>
<path fill-rule="evenodd" clip-rule="evenodd" d="M127.196 38.2103C126.724 38.3062 125.609 38.8138 125.609 38.8138C125.609 38.8138 127.488 39.2245 127.791 38.7775C127.931 38.5722 127.81 38.0858 127.196 38.2103Z" fill="#837875"/>
<path fill-rule="evenodd" clip-rule="evenodd" d="M98.4751 30.1581C98.8801 29.6458 98.2589 29.0884 97.6428 29.8061C97.2032 30.3183 96.8566 30.5273 96.6306 30.6108C96.509 30.6554 96.3952 30.533 96.4433 30.4132C96.5664 30.112 96.7066 29.6323 96.4056 29.5338C95.878 29.3617 95.4311 30.4931 94.9402 30.7829C94.874 30.8223 94.7923 30.7985 94.7587 30.729C94.6806 30.5652 94.4804 30.3002 94.0526 30.5195C93.6073 30.7482 93.2349 31.3248 91.9656 31.5576C91.9656 31.5576 95.9726 33.3232 98.4751 30.1581Z" fill="#837875"/>
<path fill-rule="evenodd" clip-rule="evenodd" d="M94.2321 32.5509C94.2321 32.5509 95.9498 34.1661 96.4588 34.1054C96.6077 34.0873 96.6564 33.9965 96.6657 33.9032C96.6755 33.8078 96.7722 33.7487 96.8607 33.7855C97.0738 33.8747 97.3852 33.9773 97.5688 33.9156C97.8465 33.8228 98.0446 33.3925 97.0857 32.9678C96.1365 32.5473 94.2321 32.5509 94.2321 32.5509Z" fill="#837875"/>
<path fill-rule="evenodd" clip-rule="evenodd" d="M101.093 33.7723C101.644 34.0098 102.003 33.4695 100.891 32.6793C99.154 31.4442 96.9293 32.2696 96.9293 32.2696C98.465 32.7923 98.6579 33.7215 99.0681 33.791C99.4716 33.8589 99.4871 33.5369 99.4535 33.3165C99.4421 33.2429 99.53 33.1905 99.5838 33.2419C99.9914 33.6307 100.259 34.646 100.807 34.4987C101.078 34.4267 101.039 34.157 100.942 33.918C100.904 33.8236 100.998 33.7319 101.093 33.7723Z" fill="#837875"/>
<path fill-rule="evenodd" clip-rule="evenodd" d="M101.233 30.9997C101.413 30.6663 100.639 30.17 99.8458 30.4635C99.4387 30.6139 98.6603 31.1402 98.2692 31.3994C99.0699 31.4026 101.064 31.3113 101.233 30.9997Z" fill="#837875"/>
<path fill-rule="evenodd" clip-rule="evenodd" d="M102.732 31.9364C102.445 31.4796 100.552 31.826 100.552 31.826C100.552 31.826 101.649 32.3709 102.118 32.4829C102.727 32.6281 102.865 32.1459 102.732 31.9364Z" fill="#837875"/>
<path fill-rule="evenodd" clip-rule="evenodd" d="M55.1293 20.3637C50.229 20.3637 46.9367 16.5184 46.9367 10.7955C46.9367 4.20671 50.7147 1.20604 54.2247 1.20604C56.8911 1.20604 58.5167 2.80619 58.5328 2.82227L58.7117 3.00219L59.1705 1.1013L59.0681 1.05101C58.9812 1.00797 56.9076 0.000488281 54.5231 0.000488281C53.0236 0.000488281 51.6219 0.276859 50.3562 0.822859C49.1361 1.34915 48.0648 2.11397 47.1726 3.09708C46.2943 4.06412 45.6131 5.21678 45.1461 6.52241C44.6748 7.83945 44.4364 9.2773 44.4364 10.7955C44.4364 12.2769 44.663 13.6837 45.1098 14.9758C45.5635 16.2861 46.2307 17.4419 47.094 18.4115C48.9457 20.4913 51.5847 21.5906 54.7264 21.5906C57.0121 21.5906 58.7061 20.8175 58.7769 20.7848L58.8328 20.7589L59.3009 19.3511L58.9698 19.5533C58.9564 19.5611 57.6048 20.3637 55.1293 20.3637Z" fill="#837875"/>
<mask id="mask1_3_151" style="mask-type:luminance" maskUnits="userSpaceOnUse" x="0" y="0" width="21" height="25">
<path fill-rule="evenodd" clip-rule="evenodd" d="M0 0.427979H20.5205V24.9446H0V0.427979Z" fill="white"/>
</mask>
<g mask="url(#mask1_3_151)">
<path fill-rule="evenodd" clip-rule="evenodd" d="M14.9886 1.63302V19.8921H5.00166C5.37873 19.1491 6.56425 16.6115 7.8227 11.8183C8.69477 8.41264 9.28184 4.8945 9.52287 1.63302H14.9886ZM17.3063 19.8921V0.427979H5.60839V1.21924L8.32442 1.61279C8.21839 3.47531 7.72494 7.55605 6.49959 11.7089C5.12011 16.2983 3.67804 19.0558 3.20787 19.8921H-6.10352e-05V24.9446H0.804767L1.98511 21.0977H18.5343L19.6825 24.9446H20.5205V19.8921H17.3063Z" fill="#837875"/>
</g>
<path fill-rule="evenodd" clip-rule="evenodd" d="M61.3931 0.427734V2.04033L67.33 1.51455V21.0974H69.6472V1.51455L75.6167 2.04033V0.427734H61.3931Z" fill="#837875"/>
<path fill-rule="evenodd" clip-rule="evenodd" d="M89.4405 0.427734V11.7169C87.8075 15.1734 83.4255 18.3928 80.8263 19.5854V0.427734H78.5091V21.0974H80.3841L80.4094 21.0871C82.7732 20.1335 87.0384 17.5051 89.4405 14.0575V21.0974H91.3181V0.427734H89.4405Z" fill="#837875"/>
<path fill-rule="evenodd" clip-rule="evenodd" d="M163.151 0.427734H163.123L163.097 0.438623C161.609 1.04685 159.823 2.11136 158.197 3.3584C156.966 4.30366 155.309 5.75448 154.156 7.45366V0.427734H151.839V21.0974H154.156V9.80825C155.753 6.42336 159.563 3.55544 162.681 1.95218V21.0974H164.559V0.427734H163.151Z" fill="#837875"/>
<path fill-rule="evenodd" clip-rule="evenodd" d="M116.256 17.6615C115.855 16.6172 115.255 15.6003 114.423 14.5535C113.653 13.5569 112.647 12.6635 111.436 11.9002C110.41 11.2541 109.28 10.7263 108.071 10.3281C110.377 9.48546 112.36 8.21976 113.825 6.65124C115.44 4.9702 116.313 2.9262 116.421 0.576793L116.428 0.427979H114.763L114.76 0.56746C114.741 1.48679 114.512 3.84035 112.794 5.83613C111.253 7.61516 109.504 8.80413 107.139 9.67265V0.427979H104.953V9.67161C102.604 8.79739 100.804 7.57524 99.299 5.83613C97.5807 3.83983 97.3516 1.48627 97.333 0.56746L97.3299 0.427979H95.6628L95.6716 0.578867C95.8159 2.93242 96.69 4.9759 98.2686 6.65176C99.0212 7.45753 99.9093 8.1845 100.908 8.8119C101.859 9.40924 102.914 9.91842 104.05 10.3281C102.845 10.7226 101.712 11.2546 100.677 11.9126C99.4831 12.6718 98.4823 13.5605 97.7028 14.554C96.0585 16.6545 95.3188 18.5061 95.1466 20.9452L95.1362 21.0972H97.454L97.4638 20.9649C97.6361 18.5134 98.3354 16.4948 99.6005 14.793C100.792 13.2006 102.924 11.7166 104.953 11.055V21.0972H107.139V11.054C109.188 11.7099 111.272 13.1623 112.492 14.7935C113.755 16.4518 114.454 18.4698 114.629 20.9649L114.638 21.0972H116.957L116.946 20.9452C116.858 19.7008 116.639 18.6575 116.256 17.6615Z" fill="#837875"/>
<path fill-rule="evenodd" clip-rule="evenodd" d="M169.367 0.427734V21.0974H179.753V19.5885L171.94 20.0158L171.527 10.9402L178.67 11.0719V9.72996L171.528 9.86114L171.939 1.50988L179.753 1.97033V0.427734H169.367Z" fill="#837875"/>
<path fill-rule="evenodd" clip-rule="evenodd" d="M145.078 0.427734L145.308 9.76522H137.043L137.502 0.427734H134.915V21.0974H137.501L137.042 10.9708H145.308L145.079 21.0974H146.973V0.427734H145.078Z" fill="#837875"/>
<path fill-rule="evenodd" clip-rule="evenodd" d="M120.832 0.427734V21.0974H131.217V19.5885L123.405 20.0158L122.992 10.9402L130.135 11.0719V9.72996L122.992 9.86114L123.404 1.50988L131.217 1.97033V0.427734H120.832Z" fill="#837875"/>
<path fill-rule="evenodd" clip-rule="evenodd" d="M31.3443 20.385C26.9146 20.3731 23.9384 16.5189 23.9384 10.795C23.9384 5.07108 26.9152 1.21693 31.3443 1.20501C35.7734 1.21693 38.7496 5.07108 38.7496 10.795C38.7496 16.5189 35.7734 20.3731 31.3443 20.385ZM38.5034 3.04471C37.6298 2.07456 36.5814 1.32012 35.3865 0.803155C34.1565 0.270636 32.7967 0.000488281 31.3443 0.000488281C29.8914 0.000488281 28.5315 0.270636 27.3015 0.803155C26.1072 1.32012 25.0588 2.07456 24.1852 3.04471C23.3183 4.00708 22.6458 5.15716 22.1855 6.4633C21.7179 7.79019 21.481 9.24775 21.481 10.795C21.481 12.3428 21.7179 13.7998 22.1855 15.1267C22.6458 16.4334 23.3183 17.5835 24.1852 18.5458C25.0588 19.5155 26.1072 20.2699 27.3015 20.7874C28.5315 21.3199 29.8914 21.59 31.3443 21.59C32.7967 21.59 34.1565 21.3199 35.3865 20.7874C36.5814 20.2699 37.6298 19.5155 38.5034 18.5458C39.3698 17.5835 40.0427 16.4334 40.5031 15.1267C40.9707 13.7998 41.2076 12.3428 41.2076 10.795C41.2076 9.24775 40.9707 7.79019 40.5031 6.4633C40.0427 5.15716 39.3698 4.00708 38.5034 3.04471Z" fill="#837875"/>
</svg>
