<svg width="54" height="40" viewBox="0 0 54 40" fill="none" xmlns="http://www.w3.org/2000/svg">
<rect width="54" height="40" rx="4" fill="#333438"/>
<g clip-path="url(#clip0_15_787)">
<path d="M15 14.0394V16.6667H18.752L15 14.0394ZM18.1093 28.6667H23.6667V24.7754L18.1093 28.6667ZM30.3333 24.776V28.6667H35.89L30.3333 24.776ZM15 23.3334V25.9607L18.7533 23.3334H15ZM35.8913 11.3334H30.3333V15.2247L35.8913 11.3334ZM39 25.9614V23.3334H35.246L39 25.9614ZM39 16.6667V14.0394L35.2473 16.6667H39ZM23.6667 11.3334H18.1093L23.6667 15.2247V11.3334Z" fill="#00247D"/>
<path d="M31.7599 23.3334L38.2346 27.8674C38.5508 27.5416 38.7781 27.1401 38.8946 26.7014L34.0846 23.3334H31.7599ZM23.6666 23.3334H22.2393L15.7653 27.8667C16.1126 28.22 16.5579 28.4727 17.0573 28.59L23.6666 23.962V23.3334ZM30.3333 16.6667H31.7606L38.2346 12.1334C37.8813 11.7749 37.4335 11.5241 36.9433 11.41L30.3333 16.038V16.6667ZM22.2393 16.6667L15.7653 12.1334C15.4492 12.4594 15.2218 12.8607 15.1046 13.2994L19.9146 16.6667H22.2393Z" fill="#CF1B2B"/>
<path d="M39 22H29V28.6667H30.3333V24.776L35.89 28.6667H36.3333C36.6875 28.6668 37.0381 28.5961 37.3646 28.4588C37.6911 28.3216 37.9869 28.1205 38.2347 27.8674L31.76 23.3334H34.0847L38.8947 26.7014C38.9567 26.4767 39 26.244 39 26V25.9614L35.246 23.3334H39V22ZM15 22V23.3334H18.7533L15 25.9607V26C15 26.7274 15.2927 27.3854 15.7653 27.8667L22.2393 23.3334H23.6667V23.962L17.0573 28.5894C17.2533 28.636 17.456 28.6667 17.6667 28.6667H18.1093L23.6667 24.7754V28.6667H25V22H15ZM39 14C39.0004 13.3014 38.7254 12.6307 38.2347 12.1334L31.7607 16.6667H30.3333V16.038L36.9433 11.41C36.7436 11.3611 36.5389 11.3353 36.3333 11.3334H35.8913L30.3333 15.2247V11.3334H29V18H39V16.6667H35.2473L39 14.0394V14ZM23.6667 11.3334V15.2247L18.1093 11.3334H17.6667C17.3124 11.3332 16.9617 11.4039 16.6352 11.5413C16.3087 11.6787 16.0129 11.88 15.7653 12.1334L22.2393 16.6667H19.9147L15.1047 13.2994C15.0385 13.5272 15.0033 13.7628 15 14V14.0394L18.752 16.6667H15V18H25V11.3334H23.6667Z" fill="#EEEEEE"/>
<path d="M29 18V11.3334H25V18H15V22H25V28.6667H29V22H39V18H29Z" fill="#CF1B2B"/>
</g>
<defs>
<clipPath id="clip0_15_787">
<rect width="24" height="24" fill="white" transform="translate(15 8)"/>
</clipPath>
</defs>
</svg>
