<svg width="44" height="44" viewBox="0 0 44 44" fill="none" xmlns="http://www.w3.org/2000/svg">
<circle cx="22" cy="22" r="21.5" stroke="white" stroke-opacity="0.3"/>
<path d="M15.675 21.453C19.6121 19.6654 22.2374 18.487 23.5509 17.9176C27.3015 16.2919 28.0808 16.0095 28.5888 16.0001C28.7005 15.9981 28.9503 16.027 29.1121 16.1638C29.2487 16.2794 29.2863 16.4354 29.3043 16.545C29.3223 16.6545 29.3447 16.904 29.3269 17.099C29.1237 19.3244 28.2442 24.725 27.7968 27.2175C27.6075 28.2722 27.2347 28.6258 26.8739 28.6604C26.0896 28.7356 25.494 28.1203 24.7344 27.6014C23.5458 26.7894 22.8743 26.2839 21.7205 25.4916C20.3871 24.5759 21.2515 24.0726 22.0114 23.2501C22.2103 23.0349 25.6658 19.7594 25.7327 19.4623C25.7411 19.4251 25.7488 19.2866 25.6698 19.2135C25.5909 19.1403 25.4743 19.1653 25.3902 19.1852C25.271 19.2134 23.3722 20.5214 19.6936 23.109C19.1547 23.4947 18.6665 23.6826 18.2291 23.6728C17.7469 23.6619 16.8193 23.3887 16.1297 23.1551C15.284 22.8686 14.6118 22.7171 14.6703 22.2305C14.7008 21.9771 15.0357 21.7179 15.675 21.453Z" fill="#F4F4F5"/>
</svg>
