<svg width="44" height="44" viewBox="0 0 44 44" fill="none" xmlns="http://www.w3.org/2000/svg">
<circle cx="22" cy="22" r="21.5" stroke="white" stroke-opacity="0.3"/>
<path fill-rule="evenodd" clip-rule="evenodd" d="M29.8702 17.4613C29.985 17.0515 29.8702 16.7503 29.3243 16.7503H27.5192C27.0602 16.7503 26.8487 17.0105 26.734 17.2974C26.734 17.2974 25.8159 19.6949 24.5155 21.2522C24.0948 21.703 23.9035 21.8463 23.674 21.8463C23.5593 21.8463 23.3932 21.703 23.3932 21.2932V17.4613C23.3932 16.9694 23.26 16.7503 22.8775 16.7503H20.0409C19.7541 16.7503 19.5816 16.9785 19.5816 17.1949C19.5816 17.6612 20.2317 17.7687 20.2987 19.0801V21.9285C20.2987 22.5529 20.1935 22.6662 19.964 22.6662C19.3521 22.6662 17.8637 20.2579 16.9807 17.5023C16.8077 16.9667 16.6341 16.7503 16.1728 16.7503H14.3677C13.8519 16.7503 13.7488 17.0105 13.7488 17.2974C13.7488 17.8097 14.3608 20.3507 16.5983 23.7113C18.0901 26.0061 20.1915 27.2503 22.1039 27.2503C23.2514 27.2503 23.3932 26.974 23.3932 26.498V24.7635C23.3932 24.2108 23.5019 24.1006 23.8651 24.1006C24.1331 24.1006 24.5919 24.244 25.663 25.3505C26.8869 26.6618 27.0885 27.2503 27.7771 27.2503H29.5822C30.0979 27.2503 30.3558 26.974 30.207 26.4287C30.0443 25.8852 29.4599 25.0968 28.6845 24.1621C28.2638 23.6292 27.6326 23.0554 27.4416 22.7686C27.1738 22.3997 27.2502 22.2359 27.4416 21.9082C27.4416 21.9082 29.6407 18.5885 29.8702 17.4614V17.4613Z" fill="#F4F4F5"/>
</svg>
