<svg width="44" height="44" viewBox="0 0 44 44" fill="none" xmlns="http://www.w3.org/2000/svg">
<circle cx="22" cy="22" r="21.5" stroke="white" stroke-opacity="0.3"/>
<path d="M30.0915 17.9496C29.897 17.2266 29.327 16.6568 28.6043 16.4622C27.2837 16.1008 22.0015 16.1008 22.0015 16.1008C22.0015 16.1008 16.7195 16.1008 15.399 16.4484C14.6901 16.6429 14.1062 17.2268 13.9117 17.9496C13.5642 19.27 13.5642 22.0084 13.5642 22.0084C13.5642 22.0084 13.5642 24.7606 13.9117 26.0672C14.1064 26.79 14.6762 27.3599 15.3991 27.5546C16.7334 27.916 22.0017 27.916 22.0017 27.916C22.0017 27.916 27.2837 27.916 28.6043 27.5684C29.3272 27.3739 29.897 26.8039 30.0917 26.0811C30.4391 24.7606 30.4391 22.0223 30.4391 22.0223C30.4391 22.0223 30.453 19.27 30.0915 17.9496Z" fill="#F4F4F5"/>
<path d="M20.3213 24.538L24.7137 22.0081L20.3213 19.4783V24.538Z" fill="black"/>
</svg>
